<svg width="332" height="195" viewBox="0 0 332 195" fill="none" xmlns="http://www.w3.org/2000/svg">
<path d="M94.0019 4.4C91.1019 11 81.6019 23.5 72.9019 32C64.7019 40 58.1019 48.8 52.9019 58.5C44.9019 73.4 37.3019 85.8 35.0019 87.7C34.2019 88.4 31.9019 89 30.0019 89C24.2019 89 0.101943 102.7 0.0019434 106C-0.198057 108.8 15.1019 122.1 16.7019 120.6C17.0019 120.2 16.8019 119 16.1019 117.9C15.4019 116.8 15.1019 115.5 15.4019 115.1C16.3019 113.6 20.9019 113.3 22.6019 114.6C24.3019 115.8 24.2019 116.3 21.3019 122.2C19.5019 125.7 17.4019 130.3 16.6019 132.5C15.7019 134.7 13.7019 139.9 12.1019 144C10.5019 148.1 7.50194 156.8 5.40194 163.3C1.90194 174.4 1.80194 175.2 3.30194 177.5C5.10194 180.3 7.50194 179.9 8.40194 176.7C11.9019 164.5 27.5019 134.5 41.4019 113.4C42.5019 111.7 43.9019 109.5 44.4019 108.6C45.2019 107.3 49.3019 106.3 61.4019 104.4C88.2019 100.3 91.9019 99.9 92.9019 100.5C95.3019 102 98.1019 109.3 97.4019 112.4C96.4019 116.6 96.4019 124.6 97.4019 129.7C98.0019 133 97.8019 134.5 96.4019 136.6C94.5019 139.5 94.5019 141.2 97.2019 166.7C98.1019 174.5 99.2019 181.7 99.8019 182.8C102.002 186.8 106.802 189.8 115.102 191.9C119.702 193.1 124.102 194.3 124.902 194.5C129.802 195.9 130.902 189 128.102 173.3C127.002 166.8 125.302 154.3 124.402 145.5C123.602 136.7 122.402 126.3 121.902 122.5C120.502 112.5 120.202 96.3 121.402 95.1C123.402 93.1 154.502 89.7 209.402 85.5C228.702 84 239.702 83 259.402 81C265.502 80.4 279.402 79.7 290.402 79.6C312.602 79.3 316.802 78.4 322.702 72.9C325.102 70.6 325.902 69.1 325.902 66.4C325.902 63.7 326.602 62.2 328.902 60.2C335.902 54 330.302 49.3 316.902 50.3C312.802 50.6 307.402 51.6 305.002 52.4C302.202 53.4 292.702 54.6 279.002 55.5C267.102 56.4 254.002 57.5 249.902 58.2C241.802 59.4 235.702 59.5 226.502 58.4C219.602 57.7 216.102 58.3 174.902 67.5C171.302 68.3 162.602 69.2 155.402 69.5C142.602 70 126.502 71.6 122.402 72.6C121.202 72.9 119.702 72.5 119.002 71.7C116.702 68.8 114.902 56.6 114.902 42.3C114.902 28.2 113.002 15.9 109.902 9.9C107.502 5.2 101.602 0 98.7019 0C96.5019 0 95.7019 0.7 94.0019 4.4ZM93.6019 51.6C95.0019 53.9 95.1019 54.9 94.1019 59.9C92.4019 68.1 92.6019 69.9 95.6019 74.3C98.2019 78.1 98.3019 78.3 96.4019 79.6C95.0019 80.7 92.6019 80.9 86.9019 80.4L79.4019 79.8L71.7019 84.5C66.9019 87.4 63.4019 89 62.4019 88.6C61.5019 88.3 60.9019 87.6 61.1019 87C61.7019 85.1 90.1019 49 91.0019 49C91.4019 49 92.6019 50.2 93.6019 51.6Z" fill="white"/>
<path d="M267.902 10C265.502 12.4 265.302 16.7 267.402 21.7C268.202 23.6 268.902 25.9 268.902 26.8C268.902 29.7 264.202 34.5 258.402 37.5C255.302 39.2 251.002 41.9 249.002 43.7C246.002 46.3 245.602 47.1 246.502 48.7C248.602 52 253.202 51.3 258.402 46.8C259.502 45.9 263.502 43.7 267.102 42C275.402 38.3 277.002 35.7 278.002 24.5C278.302 20.1 279.002 15.5 279.402 14.3C281.102 9.20001 272.102 5.80001 267.902 10Z" fill="white"/>
<path d="M213.502 12C205.502 12.6 202.902 14.1 202.902 17.9C203.002 22.6 204.702 22.8 219.302 19.6C227.102 17.9 229.402 16.3 228.402 13.1C227.702 10.8 227.602 10.8 213.502 12Z" fill="white"/>
<path d="M139.902 16.9C136.202 18.1 132.902 20.3 132.902 21.6C132.902 23.7 136.002 25.4 140.202 25.6C142.502 25.7 145.002 25.8 145.702 25.9C147.802 26.1 146.702 31.1 144.302 32.7C142.502 33.9 141.802 33.7 138.602 31.5C136.502 30.2 134.302 29.3 133.502 29.6C130.602 30.7 127.602 43.4 127.502 55L127.402 62.5H130.402C133.402 62.5 133.402 62.4 134.402 55C135.902 43.7 137.402 41.7 146.002 39C155.202 36.3 157.502 34.7 158.902 30.4C160.302 26.2 159.102 22.5 155.302 18.9C152.702 16.5 144.502 15.4 139.902 16.9Z" fill="white"/>
<path d="M176.602 16.7C173.402 17.6 171.902 22.3 171.902 31.8C171.902 40.1 171.802 40.8 169.202 43.2C167.602 44.6 164.302 46.7 161.702 47.9C156.102 50.6 154.602 52.2 155.102 55.2C155.502 58 158.802 58.7 162.702 56.7C164.202 55.9 167.702 54.1 170.402 52.7C173.202 51.3 176.402 49.1 177.602 47.8C180.702 44.5 182.902 37.7 182.902 31.4C182.902 26.5 183.102 25.9 185.902 24.5C189.302 22.7 189.702 21 187.202 18.7C185.202 17 179.402 15.9 176.602 16.7Z" fill="white"/>
<path d="M203.102 26.7C201.602 27.3 199.102 32.9 197.802 38.3C196.702 43 197.602 49 199.602 49.7C201.602 50.5 216.602 46 219.502 43.8C224.402 39.9 221.602 35.2 215.302 36.9C212.602 37.6 211.102 37.6 210.202 36.8C208.302 35.3 210.002 33.6 215.102 32.1C224.402 29.3 224.202 26.8 214.702 27.1C210.702 27.2 206.702 27.1 205.902 26.7C205.102 26.4 203.802 26.4 203.102 26.7Z" fill="white"/>
<path d="M296.202 102.3C291.602 105.8 285.602 112.3 272.802 127.6C268.202 133.1 260.502 142.1 255.802 147.6C246.802 158 243.602 163 244.102 165.8C244.302 166.9 246.402 165.1 250.902 160C267.902 140.7 278.302 129.4 290.602 116.7C303.402 103.4 305.702 99.9 301.902 99.3C301.102 99.1 298.502 100.5 296.202 102.3Z" fill="white"/>
<path d="M188.702 162.7C182.202 168.4 183.302 167.3 172.102 179.8C161.502 191.8 160.102 193.8 162.302 194.6C165.002 195.6 171.502 189.7 184.802 174C187.302 171.1 191.002 167.7 193.102 166.3L196.902 163.7L212.302 171.4C229.702 180 233.402 180.7 236.802 176.4C238.002 174.9 238.902 173.4 238.902 172.9C238.902 172.5 236.502 172.4 233.702 172.7C228.902 173.1 227.602 172.8 220.902 169.2C216.802 167 210.302 163.6 206.502 161.6C197.402 156.8 195.202 156.9 188.702 162.7Z" fill="white"/>
</svg>
